<?xml version="1.0" standalone="no"?>
<!DOCTYPE svg PUBLIC "-//W3C//DTD SVG 20010904//EN"
 "http://www.w3.org/TR/2001/REC-SVG-20010904/DTD/svg10.dtd">
<svg version="1.0" xmlns="http://www.w3.org/2000/svg"
 width="344.000000pt" height="344.000000pt" viewBox="0 0 344.000000 344.000000"
 preserveAspectRatio="xMidYMid meet">

<g transform="translate(0.000000,344.000000) scale(0.100000,-0.100000)"
fill="#000000" stroke="none">
<path d="M2540 3286 c-155 -40 -218 -87 -486 -358 -186 -188 -226 -234 -257
-294 -20 -40 -37 -77 -37 -83 0 -5 24 1 53 15 28 13 68 27 87 30 26 4 44 18
70 50 59 76 403 410 455 443 182 115 431 91 589 -58 162 -152 195 -417 75
-606 -38 -61 -415 -440 -482 -485 -217 -145 -524 -85 -665 131 l-38 58 -49
-49 c-47 -48 -48 -50 -34 -77 25 -47 118 -141 182 -183 34 -22 98 -52 142 -67
68 -22 98 -27 195 -27 100 0 125 4 193 27 43 15 104 44 135 63 76 48 482 452
533 531 156 239 122 569 -80 771 -69 69 -148 118 -248 153 -76 27 -254 35
-333 15z"/>
<path d="M1980 2473 c-49 -7 -146 -46 -185 -74 -22 -15 -202 -191 -401 -391
-326 -328 -363 -369 -388 -425 -38 -88 -50 -172 -36 -252 34 -197 186 -340
388 -365 l53 -7 14 35 c8 20 15 51 15 69 l0 34 -62 7 c-166 17 -272 133 -273
296 0 126 2 129 404 531 402 402 405 404 531 404 62 0 85 -5 132 -28 97 -48
155 -135 165 -248 l6 -59 34 0 c18 0 50 7 69 15 l36 15 -7 52 c-27 200 -168
352 -359 387 -59 11 -88 12 -136 4z"/>
<path d="M805 1643 c-59 -31 -107 -74 -316 -282 -224 -224 -249 -253 -282
-321 -53 -110 -70 -194 -64 -315 15 -277 195 -497 463 -565 146 -38 292 -21
434 47 68 33 97 59 321 282 234 233 249 250 288 331 23 47 48 119 57 160 31
146 -4 331 -86 457 -42 64 -136 157 -183 182 -27 14 -29 13 -76 -33 l-49 -48
62 -42 c72 -49 145 -141 177 -223 19 -48 23 -78 23 -168 1 -124 -16 -185 -74
-272 -45 -67 -424 -444 -485 -482 -83 -53 -170 -74 -283 -69 -87 3 -105 7
-172 39 -180 87 -280 241 -280 433 0 99 24 187 71 261 33 52 368 396 443 455
32 25 46 45 51 70 3 19 17 59 30 88 15 33 20 52 12 52 -7 0 -43 -17 -82 -37z"/>
<path d="M1929 1503 l-125 -128 17 -50 c10 -27 18 -61 19 -75 0 -21 28 3 180
155 99 99 180 182 180 185 0 5 -125 40 -140 40 -3 0 -62 -57 -131 -127z"/>
</g>
</svg>
